<?xml version="1.0" encoding="iso-8859-1"?>
<!-- Generator: Adobe Illustrator 22.1.0, SVG Export Plug-In . SVG Version: 6.00 Build 0)  -->
<svg xmlns="http://www.w3.org/2000/svg" xmlns:xlink="http://www.w3.org/1999/xlink" version="1.1" id="Layer_1" x="0px" y="0px" viewBox="0 0 48 48" style="enable-background:new 0 0 48 48;" xml:space="preserve" width="33px" height="33px">
<path style="fill:#FAFAFA;" d="M22.586,4.414L5.879,21.121C5.316,21.684,5,22.447,5,23.243V41c0,1.105,0.895,2,2,2h34  c1.105,0,2-0.895,2-2V23.243c0-0.796-0.316-1.559-0.879-2.121L25.414,4.414C24.633,3.633,23.367,3.633,22.586,4.414z"/>
<rect x="12" y="35" style="fill:#43A047;" width="24" height="8"/>
<path style="fill:#FBC02D;" d="M13,24v19H7c-1.1,0-2-0.9-2-2V24H13z"/>
<path style="fill:#1E88E5;" d="M42.12,21.12L29.59,8.59l-5.55,5.55L35,25.1V43h6c1.1,0,2-0.9,2-2V23.24  C43,22.45,42.68,21.68,42.12,21.12z"/>
<path style="fill:#E64A19;" d="M29.59,8.59L5,33.18v-9.94c0-0.79,0.32-1.56,0.88-2.12L22.59,4.41c0.78-0.78,2.04-0.78,2.82,0  L29.59,8.59z"/>
</svg>
